<svg xmlns="http://www.w3.org/2000/svg" width="314.406" height="300" viewBox="0 0 314.406 300"><g transform="translate(19939.406 -13084.957)"><line y2="30" transform="translate(-19912.5 13138.5)" fill="none" stroke="#57c7f2" stroke-width="3"/><g transform="translate(-19939.406 13084.957)" fill="#fff" stroke="#57c7f2" stroke-width="3"><ellipse cx="26.953" cy="27" rx="26.953" ry="27" stroke="none"/><ellipse cx="26.953" cy="27" rx="25.453" ry="25.5" fill="none"/></g><text transform="translate(-19916.295 13120.957)" fill="#0a2463" font-size="20" font-family="Oswald-Regular, Oswald"><tspan x="0" y="0">1</tspan></text><g transform="translate(-19939.406 13166.957)" fill="#fff" stroke="#57c7f2" stroke-width="3"><ellipse cx="26.953" cy="27" rx="26.953" ry="27" stroke="none"/><ellipse cx="26.953" cy="27" rx="25.453" ry="25.5" fill="none"/></g><text transform="translate(-19917.295 13202.957)" fill="#0a2463" font-size="20" font-family="Oswald-Regular, Oswald"><tspan x="0" y="0">2</tspan></text><g transform="translate(-19939.406 13248.957)" fill="#fff" stroke="#57c7f2" stroke-width="3"><ellipse cx="26.953" cy="27" rx="26.953" ry="27" stroke="none"/><ellipse cx="26.953" cy="27" rx="25.453" ry="25.5" fill="none"/></g><text transform="translate(-19917.295 13284.957)" fill="#0a2463" font-size="20" font-family="Oswald-Regular, Oswald"><tspan x="0" y="0">3</tspan></text><g transform="translate(-19939.406 13330.957)" fill="#fff" stroke="#57c7f2" stroke-width="3"><ellipse cx="26.953" cy="27" rx="26.953" ry="27" stroke="none"/><ellipse cx="26.953" cy="27" rx="25.453" ry="25.5" fill="none"/></g><text transform="translate(-19917.295 13366.957)" fill="#0a2463" font-size="20" font-family="Oswald-Regular, Oswald"><tspan x="0" y="0">4</tspan></text><line y2="30" transform="translate(-19912.5 13220.5)" fill="none" stroke="#57c7f2" stroke-width="3"/><line y2="28" transform="translate(-19912.5 13302.5)" fill="none" stroke="#57c7f2" stroke-width="3"/><text transform="translate(-19867 13109)" fill="#fff" font-size="14" font-family="NotoSans-SemiBold, Noto Sans" font-weight="600"><tspan x="0" y="0">Opret en gratis brugerprofil (ingen </tspan><tspan x="0" y="19">binding)</tspan></text><text transform="translate(-19867 13191)" fill="#fff" font-size="14" font-family="NotoSans-SemiBold, Noto Sans" font-weight="600"><tspan x="0" y="0">Tilmeld dig et medlemskab, event </tspan><tspan x="0" y="19">eller forløb</tspan></text><text transform="translate(-19867 13280)" fill="#fff" font-size="14" font-family="NotoSans-SemiBold, Noto Sans" font-weight="600"><tspan x="0" y="0">Gennemfør introforløb</tspan></text><text transform="translate(-19867 13355)" fill="#fff" font-size="14" font-family="NotoSans-SemiBold, Noto Sans" font-weight="600"><tspan x="0" y="0">Du er nu klar til almindelig </tspan><tspan x="0" y="19">holdtræning</tspan></text></g></svg>